<svg version="1.1" id="Layer_1" xmlns="http://www.w3.org/2000/svg" xmlns:xlink="http://www.w3.org/1999/xlink" x="0px" y="0px"
	 width="100%" viewBox="0 0 500 500" enable-background="new 0 0 500 500" xml:space="preserve">
<path fill="#010101" opacity="0.000000" stroke="none" 
	d="
M296.000000,501.000000 
	C197.333359,501.000000 99.166710,501.000000 1.000053,501.000000 
	C1.000035,334.333405 1.000035,167.666794 1.000018,1.000142 
	C167.666565,1.000095 334.333130,1.000095 500.999756,1.000047 
	C500.999847,167.666519 500.999847,334.333038 500.999939,500.999786 
	C432.833344,501.000000 364.666656,501.000000 296.000000,501.000000 
M415.921814,83.454353 
	C415.626373,83.249199 415.330933,83.044044 414.758148,82.242249 
	C413.697601,81.184875 412.675293,80.085686 411.570984,79.076164 
	C376.361664,46.888153 335.474854,26.311188 288.209045,18.794878 
	C282.677521,17.915241 276.968414,17.312349 276.563110,10.114644 
	C270.039276,9.564603 264.173309,9.070030 258.374847,8.581148 
	C256.579834,14.187450 254.690018,15.465987 248.865341,15.809252 
	C239.562912,16.357468 230.181473,16.453936 220.986145,17.791389 
	C136.014801,30.150402 73.527359,75.067307 37.747726,152.546448 
	C1.597943,230.827133 8.691415,308.102264 55.038235,381.153992 
	C66.593475,399.367340 80.834373,415.463257 98.010696,429.627106 
	C98.539116,429.928192 99.067535,430.229309 99.548721,430.560791 
	C99.548721,430.560791 99.552193,430.616852 99.833290,431.177551 
	C100.309601,431.641663 100.751793,432.148041 101.267067,432.563873 
	C155.424210,476.269318 217.223083,493.555786 285.871704,483.546967 
	C353.186584,473.732666 406.245575,439.560913 445.045624,383.884369 
	C477.788879,336.899170 490.312073,284.305847 484.960358,227.496246 
	C481.712128,193.016312 471.110046,160.724533 453.261627,131.008148 
	C443.301880,114.425804 432.066193,98.716484 417.600220,85.497719 
	C417.600220,85.497719 417.529510,85.446297 417.320099,84.934265 
	C416.893219,84.596046 416.466309,84.257828 416.016571,83.985611 
	C416.016571,83.985611 416.086243,83.980431 415.921814,83.454353 
z"/>
<path fill="var(--icon-service-notify-bg)" opacity="1.000000" stroke="none" 
	d="
M97.713539,429.072327 
	C80.834373,415.463257 66.593475,399.367340 55.038235,381.153992 
	C8.691415,308.102264 1.597943,230.827133 37.747726,152.546448 
	C73.527359,75.067307 136.014801,30.150402 220.986145,17.791389 
	C230.181473,16.453936 239.562912,16.357468 248.865341,15.809252 
	C254.690018,15.465987 256.579834,14.187450 258.374847,8.581148 
	C264.173309,9.070030 270.039276,9.564603 276.563110,10.114644 
	C276.968414,17.312349 282.677521,17.915241 288.209045,18.794878 
	C335.474854,26.311188 376.361664,46.888153 411.570984,79.076164 
	C412.675293,80.085686 413.697601,81.184875 415.001373,82.789040 
	C415.525146,83.550697 415.805695,83.765564 416.086243,83.980423 
	C416.086243,83.980431 416.016571,83.985611 416.059448,84.275742 
	C416.578064,84.859344 417.053772,85.152817 417.529510,85.446297 
	C417.529510,85.446297 417.600220,85.497719 417.469696,85.877426 
	C418.614258,88.925407 419.711670,91.696793 421.191345,94.246307 
	C439.727356,126.184319 449.320160,160.887360 451.794281,197.458038 
	C453.150635,217.506775 452.038239,237.621582 448.054962,257.491394 
	C442.453125,285.435150 433.344604,311.975616 418.407043,336.415405 
	C404.784698,358.703339 388.663513,378.798187 368.748993,395.840607 
	C348.624298,413.062897 326.719360,427.330872 302.044586,437.101166 
	C279.239624,446.131073 255.754456,452.232452 231.160599,454.179321 
	C212.009003,455.695343 192.931610,455.625519 174.021393,452.667419 
	C149.792297,448.877380 126.311668,442.246552 104.238197,431.205322 
	C102.910309,430.541138 101.124771,430.791840 99.552193,430.616852 
	C99.552193,430.616852 99.548721,430.560791 99.541855,430.195129 
	C98.927849,429.577118 98.320694,429.324707 97.713539,429.072327 
M295.985779,344.150696 
	C301.995728,343.698669 308.005646,343.246674 314.637482,343.107300 
	C317.254150,347.432770 320.936310,347.865082 325.448700,346.429596 
	C375.939728,330.366943 406.638733,275.192963 393.506683,224.004471 
	C381.380371,176.736481 341.651398,145.540161 292.408966,145.019165 
	C264.752625,144.726547 237.090652,145.002014 209.431305,144.960770 
	C144.543015,144.863998 95.103157,203.562744 107.517967,267.770508 
	C114.086372,301.741425 133.736069,326.292755 164.708694,341.488770 
	C170.712692,344.434479 173.339432,347.963531 172.871567,354.551208 
	C172.447678,360.519440 172.733246,366.542206 172.796616,372.539978 
	C172.887817,381.170074 176.318176,386.667908 183.043228,389.152405 
	C190.078171,391.751404 196.263962,389.729187 201.954849,382.853821 
	C208.965973,374.383423 216.077499,365.988373 222.829926,357.314972 
	C225.985962,353.261108 229.522583,351.498199 234.723495,351.577698 
	C251.548492,351.834839 268.379974,351.701294 285.208801,351.658325 
	C291.603119,351.641998 293.450439,350.148682 295.985779,344.150696 
z"/>
<path fill="var(--icon-service-notify-shadow)" opacity="1.000000" stroke="none" 
	d="
M99.692741,430.897217 
	C101.124771,430.791840 102.910309,430.541138 104.238197,431.205322 
	C126.311668,442.246552 149.792297,448.877380 174.021393,452.667419 
	C192.931610,455.625519 212.009003,455.695343 231.160599,454.179321 
	C255.754456,452.232452 279.239624,446.131073 302.044586,437.101166 
	C326.719360,427.330872 348.624298,413.062897 368.748993,395.840607 
	C388.663513,378.798187 404.784698,358.703339 418.407043,336.415405 
	C433.344604,311.975616 442.453125,285.435150 448.054962,257.491394 
	C452.038239,237.621582 453.150635,217.506775 451.794281,197.458038 
	C449.320160,160.887360 439.727356,126.184319 421.191345,94.246307 
	C419.711670,91.696793 418.614258,88.925407 417.507721,85.898941 
	C432.066193,98.716484 443.301880,114.425804 453.261627,131.008148 
	C471.110046,160.724533 481.712128,193.016312 484.960358,227.496246 
	C490.312073,284.305847 477.788879,336.899170 445.045624,383.884369 
	C406.245575,439.560913 353.186584,473.732666 285.871704,483.546967 
	C217.223083,493.555786 155.424210,476.269318 101.267067,432.563873 
	C100.751793,432.148041 100.309601,431.641663 99.692741,430.897217 
z"/>
<path fill="#53BB76" opacity="1.000000" stroke="none" 
	d="
M417.424805,85.190277 
	C417.053772,85.152817 416.578064,84.859344 416.070862,84.242737 
	C416.466309,84.257828 416.893219,84.596046 417.424805,85.190277 
z"/>
<path fill="#53BB76" opacity="1.000000" stroke="none" 
	d="
M97.862122,429.349731 
	C98.320694,429.324707 98.927849,429.577118 99.565475,430.179962 
	C99.067535,430.229309 98.539116,429.928192 97.862122,429.349731 
z"/>
<path fill="#53BB76" opacity="1.000000" stroke="none" 
	d="
M416.004028,83.717392 
	C415.805695,83.765564 415.525146,83.550697 415.140045,83.087357 
	C415.330933,83.044044 415.626373,83.249199 416.004028,83.717392 
z"/>
<path fill="#040604" opacity="1.000000" stroke="none" 
	d="
M295.074219,344.094757 
	C293.450439,350.148682 291.603119,351.641998 285.208801,351.658325 
	C268.379974,351.701294 251.548492,351.834839 234.723495,351.577698 
	C229.522583,351.498199 225.985962,353.261108 222.829926,357.314972 
	C216.077499,365.988373 208.965973,374.383423 201.954849,382.853821 
	C196.263962,389.729187 190.078171,391.751404 183.043228,389.152405 
	C176.318176,386.667908 172.887817,381.170074 172.796616,372.539978 
	C172.733246,366.542206 172.447678,360.519440 172.871567,354.551208 
	C173.339432,347.963531 170.712692,344.434479 164.708694,341.488770 
	C133.736069,326.292755 114.086372,301.741425 107.517967,267.770508 
	C95.103157,203.562744 144.543015,144.863998 209.431305,144.960770 
	C237.090652,145.002014 264.752625,144.726547 292.408966,145.019165 
	C341.651398,145.540161 381.380371,176.736481 393.506683,224.004471 
	C406.638733,275.192963 375.939728,330.366943 325.448700,346.429596 
	C320.936310,347.865082 317.254150,347.432770 314.379272,342.566833 
	C313.429047,335.936768 317.199554,333.672363 322.208282,331.887787 
	C370.546539,314.665466 394.195251,262.314667 375.008789,214.754211 
	C370.926941,204.635880 365.713837,195.038956 356.713013,187.732483 
	C355.467102,186.214539 354.658295,184.711166 353.472504,183.615967 
	C338.429779,169.722534 320.782745,160.827576 300.281067,160.210709 
	C269.830658,159.294495 239.338547,159.673065 208.864471,159.715164 
	C203.071564,159.723160 197.185379,160.242889 191.503250,161.351669 
	C154.912247,168.491837 125.538872,199.917007 121.073433,236.387711 
	C116.330894,275.121582 136.263824,311.774109 170.876846,328.298828 
	C174.719650,330.133453 178.141968,332.848816 181.882782,335.479675 
	C182.933609,337.170349 184.366150,338.425964 184.695847,339.924255 
	C185.788193,344.888336 186.905411,349.912994 187.226242,354.964417 
	C187.650146,361.638855 187.330551,368.360504 187.330551,375.061859 
	C187.787079,375.203369 188.243622,375.344849 188.700150,375.486328 
	C189.865479,374.193878 191.082153,372.943787 192.187729,371.602112 
	C199.165359,363.134583 206.131271,354.657257 213.074966,346.161896 
	C217.858780,340.309082 223.822342,336.931122 231.551956,336.946167 
	C249.674347,336.981445 267.797028,337.001801 285.919189,336.925232 
	C290.995697,336.903809 294.160583,338.973389 295.074219,344.094757 
z"/>
<path fill="#B0FDC4" opacity="1.000000" stroke="none" 
	d="
M356.974915,187.936752 
	C365.713837,195.038956 370.926941,204.635880 375.008789,214.754211 
	C394.195251,262.314667 370.546539,314.665466 322.208282,331.887787 
	C317.199554,333.672363 313.429047,335.936768 314.068329,342.410522 
	C308.005646,343.246674 301.995728,343.698669 295.529999,344.122742 
	C294.160583,338.973389 290.995697,336.903809 285.919189,336.925232 
	C267.797028,337.001801 249.674347,336.981445 231.551956,336.946167 
	C223.822342,336.931122 217.858780,340.309082 213.074966,346.161896 
	C206.131271,354.657257 199.165359,363.134583 192.187729,371.602112 
	C191.082153,372.943787 189.865479,374.193878 188.700150,375.486328 
	C188.243622,375.344849 187.787079,375.203369 187.330551,375.061859 
	C187.330551,368.360504 187.650146,361.638855 187.226242,354.964417 
	C186.905411,349.912994 185.788193,344.888336 184.695847,339.924255 
	C184.366150,338.425964 182.933609,337.170349 182.195068,335.312927 
	C184.964264,331.808319 187.717010,328.923187 190.087585,325.752350 
	C194.457108,319.907776 199.787201,316.800201 207.432251,316.915161 
	C227.898270,317.222961 248.384354,317.430206 268.836975,316.820923 
	C277.682709,316.557404 286.859619,315.362030 295.207367,312.564575 
	C327.559021,301.723206 348.863251,279.621948 358.472839,246.782700 
	C361.938751,234.938400 363.394653,222.732498 361.114441,210.365646 
	C359.735901,202.889099 358.354858,195.413025 356.974915,187.936752 
z"/>
<path fill="#D3FEDE" opacity="1.000000" stroke="none" 
	d="
M356.713013,187.732483 
	C358.354858,195.413025 359.735901,202.889099 361.114441,210.365646 
	C363.394653,222.732498 361.938751,234.938400 358.472839,246.782700 
	C348.863251,279.621948 327.559021,301.723206 295.207367,312.564575 
	C286.859619,315.362030 277.682709,316.557404 268.836975,316.820923 
	C248.384354,317.430206 227.898270,317.222961 207.432251,316.915161 
	C199.787201,316.800201 194.457108,319.907776 190.087585,325.752350 
	C187.717010,328.923187 184.964264,331.808319 182.071594,334.989014 
	C178.141968,332.848816 174.719650,330.133453 170.876846,328.298828 
	C136.263824,311.774109 116.330894,275.121582 121.073433,236.387711 
	C125.538872,199.917007 154.912247,168.491837 191.503250,161.351669 
	C197.185379,160.242889 203.071564,159.723160 208.864471,159.715164 
	C239.338547,159.673065 269.830658,159.294495 300.281067,160.210709 
	C320.782745,160.827576 338.429779,169.722534 353.472504,183.615967 
	C354.658295,184.711166 355.467102,186.214539 356.713013,187.732483 
M252.319031,268.902557 
	C261.704102,268.114990 268.322113,263.327301 271.558197,254.572784 
	C274.718964,246.021896 273.050201,238.001587 266.568542,231.526169 
	C260.117340,225.081223 252.220444,223.372574 243.539856,226.340515 
	C233.734161,229.693100 227.838440,239.592529 229.244873,250.013107 
	C230.730560,261.020660 239.220764,268.271210 252.319031,268.902557 
M177.307297,233.912888 
	C170.611786,244.643143 171.880814,256.066620 180.606155,263.608673 
	C189.742020,271.505554 203.618683,270.552795 211.473282,261.489349 
	C219.472260,252.259323 218.669220,238.682083 209.648361,230.634567 
	C200.128952,222.142288 186.677689,223.291031 177.307297,233.912888 
M325.107391,259.469696 
	C330.216492,251.411819 330.567566,243.146866 325.437317,235.095688 
	C320.765900,227.764557 313.722595,224.403397 305.046906,225.139450 
	C295.000671,225.991776 286.945587,233.557709 285.250977,243.314270 
	C283.574066,252.968903 288.849884,262.817291 297.949188,267.018188 
	C307.294250,271.332550 317.292297,268.732300 325.107391,259.469696 
z"/>
<path fill="#060706" opacity="1.000000" stroke="none" 
	d="
M251.879059,268.934662 
	C239.220764,268.271210 230.730560,261.020660 229.244873,250.013107 
	C227.838440,239.592529 233.734161,229.693100 243.539856,226.340515 
	C252.220444,223.372574 260.117340,225.081223 266.568542,231.526169 
	C273.050201,238.001587 274.718964,246.021896 271.558197,254.572784 
	C268.322113,263.327301 261.704102,268.114990 251.879059,268.934662 
M244.044601,244.985077 
	C243.333557,248.624283 244.148010,252.003738 247.739243,253.242554 
	C249.932693,253.999191 253.438629,253.938782 255.037643,252.632568 
	C256.814911,251.180740 258.190704,247.657150 257.716003,245.476349 
	C257.247650,243.324554 254.549118,240.901169 252.287994,240.071793 
	C248.786880,238.787567 245.932358,240.836243 244.044601,244.985077 
z"/>
<path fill="#050605" opacity="1.000000" stroke="none" 
	d="
M177.540741,233.634766 
	C186.677689,223.291031 200.128952,222.142288 209.648361,230.634567 
	C218.669220,238.682083 219.472260,252.259323 211.473282,261.489349 
	C203.618683,270.552795 189.742020,271.505554 180.606155,263.608673 
	C171.880814,256.066620 170.611786,244.643143 177.540741,233.634766 
M195.398590,254.154419 
	C198.987915,253.855835 201.199738,251.868362 201.974030,248.437057 
	C202.874908,244.444687 200.296890,240.638611 196.375916,239.886719 
	C192.500122,239.143494 188.986221,241.324326 187.991898,245.090103 
	C186.826721,249.502975 189.232941,252.808685 195.398590,254.154419 
z"/>
<path fill="#050605" opacity="1.000000" stroke="none" 
	d="
M324.893738,259.767883 
	C317.292297,268.732300 307.294250,271.332550 297.949188,267.018188 
	C288.849884,262.817291 283.574066,252.968903 285.250977,243.314270 
	C286.945587,233.557709 295.000671,225.991776 305.046906,225.139450 
	C313.722595,224.403397 320.765900,227.764557 325.437317,235.095688 
	C330.567566,243.146866 330.216492,251.411819 324.893738,259.767883 
M314.150360,248.208221 
	C313.861237,242.299210 311.052307,239.290161 306.282196,239.779572 
	C302.261993,240.192047 298.936035,243.842606 300.123962,247.717514 
	C300.864075,250.131592 303.232361,252.935547 305.528290,253.784790 
	C309.415100,255.222519 312.519135,253.027924 314.150360,248.208221 
z"/>
<path fill="var(--icon-service-notify-bg)" opacity="1.000000" stroke="none" 
	d="
M244.147903,244.589142 
	C245.932358,240.836243 248.786880,238.787567 252.287994,240.071793 
	C254.549118,240.901169 257.247650,243.324554 257.716003,245.476349 
	C258.190704,247.657150 256.814911,251.180740 255.037643,252.632568 
	C253.438629,253.938782 249.932693,253.999191 247.739243,253.242554 
	C244.148010,252.003738 243.333557,248.624283 244.147903,244.589142 
z"/>
<path fill="var(--icon-service-notify-bg)" opacity="1.000000" stroke="none" 
	d="
M194.995041,254.155579 
	C189.232941,252.808685 186.826721,249.502975 187.991898,245.090103 
	C188.986221,241.324326 192.500122,239.143494 196.375916,239.886719 
	C200.296890,240.638611 202.874908,244.444687 201.974030,248.437057 
	C201.199738,251.868362 198.987915,253.855835 194.995041,254.155579 
z"/>
<path fill="var(--icon-service-notify-bg)" opacity="1.000000" stroke="none" 
	d="
M314.066589,248.605209 
	C312.519135,253.027924 309.415100,255.222519 305.528290,253.784790 
	C303.232361,252.935547 300.864075,250.131592 300.123962,247.717514 
	C298.936035,243.842606 302.261993,240.192047 306.282196,239.779572 
	C311.052307,239.290161 313.861237,242.299210 314.066589,248.605209 
z"/>
</svg>