<svg version="1.1" id="Layer_1" xmlns="http://www.w3.org/2000/svg" xmlns:xlink="http://www.w3.org/1999/xlink" x="0px" y="0px"
	 width="100%" viewBox="0 0 500 500" enable-background="new 0 0 500 500" xml:space="preserve">
<path fill="#010101" opacity="0.000000" stroke="none" 
	d="
M296.000000,501.000000 
	C197.333359,501.000000 99.166710,501.000000 1.000053,501.000000 
	C1.000035,334.333405 1.000035,167.666794 1.000018,1.000142 
	C167.666565,1.000095 334.333130,1.000095 500.999756,1.000047 
	C500.999847,167.666519 500.999847,334.333038 500.999939,500.999786 
	C432.833344,501.000000 364.666656,501.000000 296.000000,501.000000 
M79.816475,419.508545 
	C79.620621,420.907593 78.741142,422.989563 79.342834,423.591919 
	C82.594521,426.847076 86.213135,429.735687 89.743896,432.784058 
	C95.552811,429.303070 97.018143,429.370728 102.581856,433.515198 
	C104.318748,434.808960 106.034866,436.130829 107.752388,437.450378 
	C143.390152,464.831604 183.613205,481.145386 228.308105,484.996490 
	C306.625641,491.744720 373.214142,466.183990 426.017334,408.016052 
	C492.345642,334.948914 505.071899,229.209702 459.430115,141.723099 
	C448.595764,120.955734 435.173676,101.958649 417.960266,85.349121 
	C417.799316,85.082703 417.563263,84.945435 417.039948,84.382950 
	C416.715820,84.170738 416.391693,83.958527 415.777679,83.163261 
	C358.997406,28.961159 291.522186,7.451779 214.085571,18.796070 
	C155.773819,27.338612 107.702003,55.452480 70.196533,100.633240 
	C25.630287,154.319733 8.911300,216.463943 18.358145,285.399506 
	C24.825352,332.592041 44.951385,373.689301 76.774261,409.068237 
	C79.378052,411.962952 81.038986,414.967743 79.816475,419.508545 
z"/>
<path fill="var(--icon-service-reminder-bg)" opacity="1.000000" stroke="none" 
	d="
M417.252075,84.937317 
	C417.563263,84.945435 417.799316,85.082703 417.994019,85.942894 
	C418.225586,87.332069 418.281067,88.199692 418.642578,88.912003 
	C423.605377,98.690536 429.110260,108.228310 433.508392,118.252396 
	C445.297699,145.122101 451.787170,173.435410 452.732422,202.673615 
	C453.238861,218.337479 451.678497,234.158936 449.930420,249.783936 
	C447.212006,274.081512 439.566010,297.104828 428.914154,319.038055 
	C415.956940,345.718231 398.640930,369.236298 376.998566,389.650146 
	C361.172607,404.577728 343.853119,417.353302 324.719696,427.557373 
	C292.894318,444.530151 258.752747,454.140991 222.815964,455.671173 
	C205.351776,456.414825 187.523407,455.289673 170.258957,452.521576 
	C142.242920,448.029633 115.492775,438.886932 90.801849,424.427948 
	C87.376900,422.422302 83.746384,420.767639 80.211029,418.950500 
	C81.038986,414.967743 79.378052,411.962952 76.774261,409.068237 
	C44.951385,373.689301 24.825352,332.592041 18.358145,285.399506 
	C8.911300,216.463943 25.630287,154.319733 70.196533,100.633240 
	C107.702003,55.452480 155.773819,27.338612 214.085571,18.796070 
	C291.522186,7.451779 358.997406,28.961159 416.030853,83.731117 
	C416.606720,84.511757 416.929382,84.724541 417.252075,84.937317 
M161.799606,164.297440 
	C161.021103,165.166321 160.245239,166.037567 159.463745,166.903763 
	C111.602097,219.953018 116.414032,299.012878 170.568756,345.759186 
	C177.441010,351.691315 185.301727,356.478302 192.927887,361.956268 
	C190.251617,367.225494 187.454910,372.705963 184.686676,378.200806 
	C184.014404,379.535248 183.262543,380.866241 182.847275,382.286591 
	C181.649567,386.383087 182.918060,389.654327 186.888397,391.309814 
	C190.884933,392.976196 194.103821,391.531677 196.119583,387.766052 
	C199.702057,381.073761 203.172424,374.321442 206.803574,367.376434 
	C236.519653,378.105438 265.873962,377.982422 295.245850,367.393341 
	C298.935059,374.476532 302.281189,381.160034 305.875427,387.707306 
	C308.130432,391.815094 311.873810,393.075226 315.528900,391.159027 
	C319.368225,389.146271 320.372986,385.849884 319.037140,381.856842 
	C318.513245,380.290802 317.661072,378.829376 316.907166,377.346344 
	C314.220795,372.061981 311.512421,366.788849 308.747437,361.384583 
	C310.828308,360.146973 312.384735,359.209259 313.952484,358.290863 
	C327.331573,350.453766 338.939056,340.533966 348.458588,328.302002 
	C384.799164,281.606537 384.868622,218.650513 347.406189,172.667236 
	C319.289337,138.155167 281.878143,123.278503 237.668594,127.379517 
	C208.326828,130.101349 183.197495,142.920013 161.799606,164.297440 
M129.496262,155.974380 
	C124.784210,163.019043 119.936226,169.977829 115.410545,177.140244 
	C112.647652,181.512863 113.626396,185.865036 117.325729,188.057266 
	C121.147873,190.322266 125.261047,189.283066 127.864784,184.726883 
	C137.728317,167.467163 150.186081,152.494019 165.810837,140.131226 
	C169.800522,136.974472 170.228226,132.379608 167.529877,129.166794 
	C164.851242,125.977455 160.079285,125.577621 156.433456,129.062759 
	C147.431686,137.667801 138.749786,146.607483 129.496262,155.974380 
M355.815918,158.700897 
	C361.826935,167.268585 367.888550,175.801376 373.828613,184.417984 
	C377.021088,189.048935 380.801025,190.400925 384.731964,188.019562 
	C388.399963,185.797501 389.133514,181.598999 386.593842,177.045685 
	C376.163116,158.344391 362.499939,142.391724 345.724213,129.099747 
	C341.713531,125.921959 337.286072,125.937935 334.554688,129.062088 
	C331.693634,132.334564 332.450409,136.743134 336.413208,140.433197 
	C342.740997,146.325470 349.026947,152.262741 355.815918,158.700897 
M247.258469,101.724770 
	C243.479782,105.708603 243.048874,109.477112 246.015427,112.595901 
	C248.722046,115.441444 253.579865,115.673378 256.355286,112.906364 
	C258.834198,110.434921 259.629852,107.426170 257.759521,104.275162 
	C255.440186,100.367691 251.993088,99.580040 247.258469,101.724770 
z"/>
<path fill="var(--icon-service-reminder-shadow)" opacity="1.000000" stroke="none" 
	d="
M80.013748,419.229523 
	C83.746384,420.767639 87.376900,422.422302 90.801849,424.427948 
	C115.492775,438.886932 142.242920,448.029633 170.258957,452.521576 
	C187.523407,455.289673 205.351776,456.414825 222.815964,455.671173 
	C258.752747,454.140991 292.894318,444.530151 324.719696,427.557373 
	C343.853119,417.353302 361.172607,404.577728 376.998566,389.650146 
	C398.640930,369.236298 415.956940,345.718231 428.914154,319.038055 
	C439.566010,297.104828 447.212006,274.081512 449.930420,249.783936 
	C451.678497,234.158936 453.238861,218.337479 452.732422,202.673615 
	C451.787170,173.435410 445.297699,145.122101 433.508392,118.252396 
	C429.110260,108.228310 423.605377,98.690536 418.642578,88.912003 
	C418.281067,88.199692 418.225586,87.332069 418.044617,86.149109 
	C435.173676,101.958649 448.595764,120.955734 459.430115,141.723099 
	C505.071899,229.209702 492.345642,334.948914 426.017334,408.016052 
	C373.214142,466.183990 306.625641,491.744720 228.308105,484.996490 
	C183.613205,481.145386 143.390152,464.831604 107.752388,437.450378 
	C106.034866,436.130829 104.318748,434.808960 102.581856,433.515198 
	C97.018143,429.370728 95.552811,429.303070 89.743896,432.784058 
	C86.213135,429.735687 82.594521,426.847076 79.342834,423.591919 
	C78.741142,422.989563 79.620621,420.907593 80.013748,419.229523 
z"/>
<path fill="#F68D3D" opacity="1.000000" stroke="none" 
	d="
M417.145996,84.660133 
	C416.929382,84.724541 416.606720,84.511757 416.175812,84.022644 
	C416.391693,83.958527 416.715820,84.170738 417.145996,84.660133 
z"/>
<path fill="#060302" opacity="1.000000" stroke="none" 
	d="
M162.033295,164.030060 
	C183.197495,142.920013 208.326828,130.101349 237.668594,127.379517 
	C281.878143,123.278503 319.289337,138.155167 347.406189,172.667236 
	C384.868622,218.650513 384.799164,281.606537 348.458588,328.302002 
	C338.939056,340.533966 327.331573,350.453766 313.952484,358.290863 
	C312.384735,359.209259 310.828308,360.146973 308.747437,361.384583 
	C311.512421,366.788849 314.220795,372.061981 316.907166,377.346344 
	C317.661072,378.829376 318.513245,380.290802 319.037140,381.856842 
	C320.372986,385.849884 319.368225,389.146271 315.528900,391.159027 
	C311.873810,393.075226 308.130432,391.815094 305.875427,387.707306 
	C302.281189,381.160034 298.935059,374.476532 295.245850,367.393341 
	C265.873962,377.982422 236.519653,378.105438 206.803574,367.376434 
	C203.172424,374.321442 199.702057,381.073761 196.119583,387.766052 
	C194.103821,391.531677 190.884933,392.976196 186.888397,391.309814 
	C182.918060,389.654327 181.649567,386.383087 182.847275,382.286591 
	C183.262543,380.866241 184.014404,379.535248 184.686676,378.200806 
	C187.454910,372.705963 190.251617,367.225494 192.927887,361.956268 
	C185.301727,356.478302 177.441010,351.691315 170.568756,345.759186 
	C116.414032,299.012878 111.602097,219.953018 159.463745,166.903763 
	C160.245239,166.037567 161.021103,165.166321 162.033295,164.030060 
M236.516953,359.679565 
	C247.122391,359.543304 257.889801,360.552856 268.306396,359.080505 
	C325.974884,350.929352 368.165070,295.036072 359.834961,237.695923 
	C353.278870,192.567307 327.883545,162.220016 285.069153,146.771088 
	C272.823975,142.352600 259.963623,140.354309 245.929108,141.643356 
	C233.606842,141.693588 221.912781,144.713257 210.454437,148.992905 
	C169.493546,164.291656 139.657089,208.918839 141.219711,252.386215 
	C142.551346,289.428009 158.022079,319.020996 187.984619,340.750244 
	C202.192398,351.053955 218.091553,357.652679 236.516953,359.679565 
z"/>
<path fill="#060402" opacity="1.000000" stroke="none" 
	d="
M129.717804,155.693527 
	C138.749786,146.607483 147.431686,137.667801 156.433456,129.062759 
	C160.079285,125.577621 164.851242,125.977455 167.529877,129.166794 
	C170.228226,132.379608 169.800522,136.974472 165.810837,140.131226 
	C150.186081,152.494019 137.728317,167.467163 127.864784,184.726883 
	C125.261047,189.283066 121.147873,190.322266 117.325729,188.057266 
	C113.626396,185.865036 112.647652,181.512863 115.410545,177.140244 
	C119.936226,169.977829 124.784210,163.019043 129.717804,155.693527 
z"/>
<path fill="#060402" opacity="1.000000" stroke="none" 
	d="
M355.573242,158.440948 
	C349.026947,152.262741 342.740997,146.325470 336.413208,140.433197 
	C332.450409,136.743134 331.693634,132.334564 334.554688,129.062088 
	C337.286072,125.937935 341.713531,125.921959 345.724213,129.099747 
	C362.499939,142.391724 376.163116,158.344391 386.593842,177.045685 
	C389.133514,181.598999 388.399963,185.797501 384.731964,188.019562 
	C380.801025,190.400925 377.021088,189.048935 373.828613,184.417984 
	C367.888550,175.801376 361.826935,167.268585 355.573242,158.440948 
z"/>
<path fill="#0C0804" opacity="1.000000" stroke="none" 
	d="
M247.570831,101.512802 
	C251.993088,99.580040 255.440186,100.367691 257.759521,104.275162 
	C259.629852,107.426170 258.834198,110.434921 256.355286,112.906364 
	C253.579865,115.673378 248.722046,115.441444 246.015427,112.595901 
	C243.048874,109.477112 243.479782,105.708603 247.570831,101.512802 
z"/>
<path fill="var(--icon-service-reminder-clockL)" opacity="1.000000" stroke="none" 
	d="
M246.807297,141.798279 
	C259.963623,140.354309 272.823975,142.352600 285.069153,146.771088 
	C327.883545,162.220016 353.278870,192.567307 359.834961,237.695923 
	C368.165070,295.036072 325.974884,350.929352 268.306396,359.080505 
	C257.889801,360.552856 247.122391,359.543304 236.399780,359.184753 
	C237.937393,357.938812 239.642487,357.280914 241.237885,356.419769 
	C246.864807,353.382477 252.454086,350.275482 258.469696,347.084351 
	C307.456390,343.507660 347.228088,300.949402 347.248871,252.513016 
	C347.251129,247.314209 344.995300,244.369232 339.876221,243.163971 
	C339.013794,238.037613 338.170898,233.305649 337.575317,228.311447 
	C342.461578,225.405426 342.885834,221.602264 341.117401,216.964798 
	C336.564423,205.025406 329.910736,194.413818 321.177124,185.121674 
	C306.613373,169.626480 288.636505,160.301071 267.786285,155.649536 
	C264.804962,153.409439 262.041168,151.378876 259.167145,149.518600 
	C255.089737,146.879425 250.931168,144.365646 246.807297,141.798279 
z"/>
<path fill="var(--icon-service-reminder-clockR)" opacity="1.000000" stroke="none" 
	d="
M246.368195,141.720825 
	C250.931168,144.365646 255.089737,146.879425 259.167145,149.518600 
	C262.041168,151.378876 264.804962,153.409439 267.370911,155.675140 
	C239.227020,151.852661 214.018677,158.105194 191.569901,175.343689 
	C136.133698,217.913315 145.041702,306.251190 207.810425,337.058411 
	C223.742859,344.878143 240.472107,347.963684 258.057648,347.194916 
	C252.454086,350.275482 246.864807,353.382477 241.237885,356.419769 
	C239.642487,357.280914 237.937393,357.938812 236.038269,358.974487 
	C218.091553,357.652679 202.192398,351.053955 187.984619,340.750244 
	C158.022079,319.020996 142.551346,289.428009 141.219711,252.386215 
	C139.657089,208.918839 169.493546,164.291656 210.454437,148.992905 
	C221.912781,144.713257 233.606842,141.693588 246.368195,141.720825 
z"/>
<path fill="#060404" opacity="1.000000" stroke="none" 
	d="
M258.469696,347.084351 
	C240.472107,347.963684 223.742859,344.878143 207.810425,337.058411 
	C145.041702,306.251190 136.133698,217.913315 191.569901,175.343689 
	C214.018677,158.105194 239.227020,151.852661 267.539246,155.960724 
	C288.636505,160.301071 306.613373,169.626480 321.177124,185.121674 
	C329.910736,194.413818 336.564423,205.025406 341.117401,216.964798 
	C342.885834,221.602264 342.461578,225.405426 337.251373,228.262787 
	C331.052856,229.235825 328.749176,225.776382 326.914154,221.212357 
	C320.411224,205.038086 310.231720,191.852371 294.830872,182.607498 
	C275.732300,170.313812 255.207535,166.462219 233.429718,171.349182 
	C199.752777,178.906281 175.510056,205.342194 170.210831,239.427277 
	C165.177078,271.804871 181.002457,304.987305 210.586868,321.689728 
	C235.405853,335.701813 261.139832,336.656738 287.259369,323.887268 
	C287.758850,323.661804 287.993317,323.417877 288.215668,323.149292 
	C288.203522,323.124634 288.218567,323.183411 288.570618,323.170624 
	C296.037933,317.788696 303.923279,313.178192 310.111847,306.896118 
	C323.984192,292.814240 331.240051,275.448029 332.367828,255.588974 
	C332.889771,246.397858 333.647552,245.409332 339.895721,243.558350 
	C344.995300,244.369232 347.251129,247.314209 347.248871,252.513016 
	C347.228088,300.949402 307.456390,343.507660 258.469696,347.084351 
z"/>
<path fill="#FCE1BB" opacity="1.000000" stroke="none" 
	d="
M339.876221,243.163971 
	C333.647552,245.409332 332.889771,246.397858 332.367828,255.588974 
	C331.240051,275.448029 323.984192,292.814240 310.111847,306.896118 
	C303.923279,313.178192 296.037933,317.788696 288.549530,322.806610 
	C290.871582,318.124115 293.601410,313.813934 296.256073,309.457977 
	C308.407257,289.519531 313.715057,267.940887 313.156250,244.544342 
	C312.671600,224.252151 307.067352,205.757736 296.974823,188.377487 
	C296.015778,186.725983 295.661835,184.723114 295.026978,182.883362 
	C310.231720,191.852371 320.411224,205.038086 326.914154,221.212357 
	C328.749176,225.776382 331.052856,229.235825 337.004028,228.525009 
	C338.170898,233.305649 339.013794,238.037613 339.876221,243.163971 
z"/>
<path fill="#FDEFD6" opacity="1.000000" stroke="none" 
	d="
M294.830872,182.607498 
	C295.661835,184.723114 296.015778,186.725983 296.974823,188.377487 
	C307.067352,205.757736 312.671600,224.252151 313.156250,244.544342 
	C313.715057,267.940887 308.407257,289.519531 296.256073,309.457977 
	C293.601410,313.813934 290.871582,318.124115 288.197449,322.819397 
	C288.218567,323.183411 288.203522,323.124634 287.963654,323.164154 
	C287.480621,323.425354 287.237488,323.647064 286.994354,323.868774 
	C261.139832,336.656738 235.405853,335.701813 210.586868,321.689728 
	C181.002457,304.987305 165.177078,271.804871 170.210831,239.427277 
	C175.510056,205.342194 199.752777,178.906281 233.429718,171.349182 
	C255.207535,166.462219 275.732300,170.313812 294.830872,182.607498 
M261.489685,247.861877 
	C260.436920,245.255295 258.516632,242.663269 258.472656,240.039780 
	C258.193878,223.409134 258.380920,206.771317 258.301056,190.136398 
	C258.274078,184.522614 255.463287,181.291519 251.027893,181.265488 
	C246.583664,181.239395 243.722366,184.470306 243.699615,190.059387 
	C243.623779,208.690598 243.525085,227.324707 243.828308,245.951309 
	C243.874161,248.768143 245.353439,252.167999 247.297073,254.241241 
	C255.143127,262.610413 263.391632,270.605377 271.571747,278.657013 
	C275.707245,282.727509 279.696136,283.084808 282.975830,279.946777 
	C286.289337,276.776428 285.886627,272.435669 281.720886,268.193451 
	C275.194092,261.546814 268.590851,254.975250 261.489685,247.861877 
z"/>
<path fill="#FCE1BB" opacity="1.000000" stroke="none" 
	d="
M287.259369,323.887268 
	C287.237488,323.647064 287.480621,323.425354 287.975800,323.188812 
	C287.993317,323.417877 287.758850,323.661804 287.259369,323.887268 
z"/>
<path fill="#050404" opacity="1.000000" stroke="none" 
	d="
M261.754822,248.116882 
	C268.590851,254.975250 275.194092,261.546814 281.720886,268.193451 
	C285.886627,272.435669 286.289337,276.776428 282.975830,279.946777 
	C279.696136,283.084808 275.707245,282.727509 271.571747,278.657013 
	C263.391632,270.605377 255.143127,262.610413 247.297073,254.241241 
	C245.353439,252.167999 243.874161,248.768143 243.828308,245.951309 
	C243.525085,227.324707 243.623779,208.690598 243.699615,190.059387 
	C243.722366,184.470306 246.583664,181.239395 251.027893,181.265488 
	C255.463287,181.291519 258.274078,184.522614 258.301056,190.136398 
	C258.380920,206.771317 258.193878,223.409134 258.472656,240.039780 
	C258.516632,242.663269 260.436920,245.255295 261.754822,248.116882 
z"/>
</svg>