<svg version="1.1" id="Layer_1" xmlns="http://www.w3.org/2000/svg" xmlns:xlink="http://www.w3.org/1999/xlink" x="0px" y="0px"
	 width="100%" viewBox="0 0 512 512" enable-background="new 0 0 512 512" xml:space="preserve">
<path fill="#020101" opacity="0.000000" stroke="none" 
	d="
M234.000000,1.000000 
	C248.687561,1.000000 263.375122,1.000000 278.692139,1.402865 
	C283.229767,2.202516 287.204346,2.273524 291.034119,3.054544 
	C304.914581,5.885236 318.911133,8.348894 332.561035,12.063859 
	C358.059601,19.003555 381.243408,31.015636 402.995605,45.960293 
	C424.574066,60.785591 443.274384,78.744125 459.400635,99.162544 
	C472.675751,115.970924 483.659302,134.339340 492.131012,154.205704 
	C501.542847,176.276779 508.162109,198.996338 511.028168,222.818817 
	C511.519073,226.899231 512.334473,230.940598 513.000000,235.000000 
	C513.000000,249.354233 513.000000,263.708466 512.597168,278.692139 
	C511.797516,283.229736 511.726440,287.204254 510.945435,291.033997 
	C508.114746,304.914429 505.596497,318.893768 501.936462,332.561584 
	C496.593231,352.515106 487.655334,370.955811 477.136627,388.772827 
	C460.848175,416.362671 439.647217,439.573547 414.838531,459.411957 
	C398.104797,472.793182 379.645081,483.641205 359.792633,492.126740 
	C337.729126,501.557404 315.003693,508.162109 291.181183,511.028168 
	C287.100769,511.519073 283.059418,512.334473 279.000000,513.000000 
	C264.645782,513.000000 250.291550,513.000000 235.307861,512.597168 
	C230.770325,511.797485 226.795837,511.726410 222.966095,510.945435 
	C209.085663,508.114746 195.089050,505.651245 181.439148,501.936249 
	C155.940643,494.996429 132.756744,482.984528 111.004631,468.039703 
	C89.426285,453.214294 70.725700,435.256104 54.599461,414.837646 
	C41.324368,398.029175 30.340687,379.660767 21.868967,359.794403 
	C12.457120,337.723328 5.837894,315.003693 2.971786,291.181183 
	C2.480870,287.100769 1.665491,283.059418 1.000000,279.000000 
	C1.000000,264.645782 1.000000,250.291550 1.400932,235.310471 
	C1.874264,232.193176 1.603916,229.635635 2.076235,227.223495 
	C4.614098,214.262619 6.976655,201.251053 10.073348,188.419556 
	C15.840919,164.520905 25.852234,142.285141 39.076332,121.680031 
	C46.920921,109.457001 55.963821,97.947678 65.107399,86.634277 
	C70.654350,79.771011 73.243744,76.937111 80.889587,81.429886 
	C84.018677,87.791313 83.789307,89.299820 78.665573,95.006783 
	C40.072193,137.993179 19.223490,188.428879 16.326710,246.018951 
	C14.336453,285.586670 21.873348,323.543793 38.839699,359.444275 
	C50.815083,384.783905 66.406265,407.632599 86.865555,427.335632 
	C87.288864,427.788727 87.610802,427.973083 87.936890,428.112610 
	C87.941032,428.067719 87.858315,428.103516 87.978455,428.418152 
	C90.741028,431.271149 93.272903,433.937531 96.042114,436.329102 
	C158.176361,489.989777 229.619217,508.937561 309.873322,491.956635 
	C415.147522,469.681702 494.041595,374.830536 497.776978,267.248810 
	C499.410492,220.201981 488.918701,176.092300 465.032593,135.376022 
	C454.805542,117.943047 442.890869,101.771591 428.084290,87.900009 
	C428.065277,87.941666 428.156158,87.930305 428.079620,87.653137 
	C427.689850,87.170967 427.376617,86.965973 426.924744,86.465538 
	C414.036957,75.789574 402.113556,64.134071 388.395477,55.249657 
	C329.611298,17.178415 265.714417,7.143359 197.798737,23.618023 
	C163.893494,31.842598 133.375336,47.379505 106.188148,69.285759 
	C101.643570,72.947586 97.291199,74.216171 92.170914,70.150223 
	C90.061134,65.663750 90.235054,61.640846 93.884392,58.741909 
	C99.563667,54.230446 105.535233,50.076824 111.485870,45.918900 
	C131.761337,31.751703 153.687454,20.738920 177.292572,13.491117 
	C190.310303,9.494104 203.803070,7.020720 217.121277,4.037162 
	C222.694626,2.788617 228.370651,1.998527 234.000000,1.000000 
z"/>
<path fill="#FFFFFF" opacity="0.000000" stroke="none" 
	d="
M80.810349,81.057434 
	C73.243744,76.937111 70.654350,79.771011 65.107399,86.634277 
	C55.963821,97.947678 46.920921,109.457001 39.076332,121.680031 
	C25.852234,142.285141 15.840919,164.520905 10.073348,188.419556 
	C6.976655,201.251053 4.614098,214.262619 2.076235,227.223495 
	C1.603916,229.635635 1.874264,232.193176 1.400932,234.841812 
	C1.000000,157.073105 1.000000,79.146217 1.000000,1.000000 
	C78.354088,1.000000 155.708389,1.000000 233.531342,1.000000 
	C228.370651,1.998527 222.694626,2.788617 217.121277,4.037162 
	C203.803070,7.020720 190.310303,9.494104 177.292572,13.491117 
	C153.687454,20.738920 131.761337,31.751703 111.485870,45.918900 
	C105.535233,50.076824 99.563667,54.230446 93.884392,58.741909 
	C90.235054,61.640846 90.061134,65.663750 91.860580,70.362000 
	C88.049606,74.315666 84.429977,77.686554 80.810349,81.057434 
z"/>
<path fill="#FFFFFF" opacity="0.000000" stroke="none" 
	d="
M513.000000,234.531342 
	C512.334473,230.940598 511.519073,226.899231 511.028168,222.818817 
	C508.162109,198.996338 501.542847,176.276779 492.131012,154.205704 
	C483.659302,134.339340 472.675751,115.970924 459.400635,99.162544 
	C443.274384,78.744125 424.574066,60.785591 402.995605,45.960293 
	C381.243408,31.015636 358.059601,19.003555 332.561035,12.063859 
	C318.911133,8.348894 304.914581,5.885236 291.034119,3.054544 
	C287.204346,2.273524 283.229767,2.202516 279.160828,1.402865 
	C356.927032,1.000000 434.854095,1.000000 513.000000,1.000000 
	C513.000000,78.687424 513.000000,156.375061 513.000000,234.531342 
z"/>
<path fill="#FFFFFF" opacity="0.000000" stroke="none" 
	d="
M1.000000,279.468658 
	C1.665491,283.059418 2.480870,287.100769 2.971786,291.181183 
	C5.837894,315.003693 12.457120,337.723328 21.868967,359.794403 
	C30.340687,379.660767 41.324368,398.029175 54.599461,414.837646 
	C70.725700,435.256104 89.426285,453.214294 111.004631,468.039703 
	C132.756744,482.984528 155.940643,494.996429 181.439148,501.936249 
	C195.089050,505.651245 209.085663,508.114746 222.966095,510.945435 
	C226.795837,511.726410 230.770325,511.797485 234.839203,512.597168 
	C157.072968,513.000000 79.145927,513.000000 1.000000,513.000000 
	C1.000000,435.312561 1.000000,357.624939 1.000000,279.468658 
z"/>
<path fill="#FFFFFF" opacity="0.000000" stroke="none" 
	d="
M279.468658,513.000000 
	C283.059418,512.334473 287.100769,511.519073 291.181183,511.028168 
	C315.003693,508.162109 337.729126,501.557404 359.792633,492.126740 
	C379.645081,483.641205 398.104797,472.793182 414.838531,459.411957 
	C439.647217,439.573547 460.848175,416.362671 477.136627,388.772827 
	C487.655334,370.955811 496.593231,352.515106 501.936462,332.561584 
	C505.596497,318.893768 508.114746,304.914429 510.945435,291.033997 
	C511.726440,287.204254 511.797516,283.229736 512.597168,279.160828 
	C513.000000,356.927032 513.000000,434.854095 513.000000,513.000000 
	C435.312561,513.000000 357.624939,513.000000 279.468658,513.000000 
z"/>
<path fill="var(--icon-service-task-bg)" opacity="1.000000" stroke="none" 
	d="
M80.889587,81.429886 
	C84.429977,77.686554 88.049606,74.315666 91.979561,70.733002 
	C97.291199,74.216171 101.643570,72.947586 106.188148,69.285759 
	C133.375336,47.379505 163.893494,31.842598 197.798737,23.618023 
	C265.714417,7.143359 329.611298,17.178415 388.395477,55.249657 
	C402.113556,64.134071 414.036957,75.789574 427.005432,86.742020 
	C427.535248,87.519386 427.845703,87.724838 428.156158,87.930298 
	C428.156158,87.930305 428.065277,87.941666 428.049530,88.281586 
	C432.055969,97.159157 436.320282,105.592331 440.056885,114.253189 
	C453.641113,145.739212 459.895264,178.798309 459.847748,212.970978 
	C459.831696,224.508133 458.327576,236.073990 457.022980,247.572205 
	C454.266418,271.867584 446.830414,294.894684 436.446350,316.888947 
	C422.190033,347.085022 402.801971,373.528992 377.789764,395.912994 
	C362.843018,409.289215 346.683411,420.775116 329.163574,430.339386 
	C296.002686,448.442200 260.269470,458.142975 222.687134,459.688110 
	C205.563446,460.392120 188.127808,459.100922 171.153748,456.568909 
	C144.262878,452.557617 118.693222,443.660828 94.590393,430.844788 
	C92.462196,429.713196 90.107704,429.007172 87.858315,428.103516 
	C87.858315,428.103516 87.941032,428.067719 87.839836,427.841614 
	C87.413826,427.432648 87.089005,427.249786 86.764191,427.066895 
	C66.406265,407.632599 50.815083,384.783905 38.839699,359.444275 
	C21.873348,323.543793 14.336453,285.586670 16.326710,246.018951 
	C19.223490,188.428879 40.072193,137.993179 78.665573,95.006783 
	C83.789307,89.299820 84.018677,87.791313 80.889587,81.429886 
M358.757385,290.073090 
	C364.347534,288.385986 365.670410,286.509613 365.675018,279.714691 
	C365.699310,244.049927 365.742920,208.385025 365.661255,172.720428 
	C365.623901,156.412872 356.091553,147.038742 339.777557,147.032669 
	C284.613800,147.012100 229.450058,147.013107 174.286316,147.032028 
	C157.936401,147.037628 148.460754,156.376724 148.331207,172.656631 
	C148.239685,184.155304 148.312744,195.655289 148.312759,207.154678 
	C148.312790,251.652313 148.290497,296.149963 148.324875,340.647583 
	C148.337524,357.038483 157.576950,366.931152 173.090469,366.948883 
	C229.087433,367.012848 285.084503,366.974213 341.081543,366.970795 
	C341.914215,366.970734 342.749084,366.955811 343.579254,366.896637 
	C355.114868,366.074341 364.068970,357.960815 365.153107,346.436646 
	C365.883881,338.668640 365.527008,330.799713 365.693085,322.976715 
	C365.807404,317.593384 363.606873,314.025238 358.066010,312.051453 
	C358.053070,304.787109 358.040100,297.522797 358.757385,290.073090 
z"/>
<path fill="var(--icon-service-task-shadow)" opacity="1.000000" stroke="none" 
	d="
M87.978455,428.418152 
	C90.107704,429.007172 92.462196,429.713196 94.590393,430.844788 
	C118.693222,443.660828 144.262878,452.557617 171.153748,456.568909 
	C188.127808,459.100922 205.563446,460.392120 222.687134,459.688110 
	C260.269470,458.142975 296.002686,448.442200 329.163574,430.339386 
	C346.683411,420.775116 362.843018,409.289215 377.789764,395.912994 
	C402.801971,373.528992 422.190033,347.085022 436.446350,316.888947 
	C446.830414,294.894684 454.266418,271.867584 457.022980,247.572205 
	C458.327576,236.073990 459.831696,224.508133 459.847748,212.970978 
	C459.895264,178.798309 453.641113,145.739212 440.056885,114.253189 
	C436.320282,105.592331 432.055969,97.159157 428.068542,88.239929 
	C442.890869,101.771591 454.805542,117.943047 465.032593,135.376022 
	C488.918701,176.092300 499.410492,220.201981 497.776978,267.248810 
	C494.041595,374.830536 415.147522,469.681702 309.873322,491.956635 
	C229.619217,508.937561 158.176361,489.989777 96.042114,436.329102 
	C93.272903,433.937531 90.741028,431.271149 87.978455,428.418152 
z"/>
<path fill="#F68E3D" opacity="1.000000" stroke="none" 
	d="
M428.079620,87.653137 
	C427.845703,87.724838 427.535248,87.519386 427.144073,87.037453 
	C427.376617,86.965973 427.689850,87.170967 428.079620,87.653137 
z"/>
<path fill="#F68E3D" opacity="1.000000" stroke="none" 
	d="
M86.865555,427.335632 
	C87.089005,427.249786 87.413826,427.432648 87.835693,427.886475 
	C87.610802,427.973083 87.288864,427.788727 86.865555,427.335632 
z"/>
<path fill="#040301" opacity="1.000000" stroke="none" 
	d="
M358.063477,312.985840 
	C363.606873,314.025238 365.807404,317.593384 365.693085,322.976715 
	C365.527008,330.799713 365.883881,338.668640 365.153107,346.436646 
	C364.068970,357.960815 355.114868,366.074341 343.579254,366.896637 
	C342.749084,366.955811 341.914215,366.970734 341.081543,366.970795 
	C285.084503,366.974213 229.087433,367.012848 173.090469,366.948883 
	C157.576950,366.931152 148.337524,357.038483 148.324875,340.647583 
	C148.290497,296.149963 148.312790,251.652313 148.312759,207.154678 
	C148.312744,195.655289 148.239685,184.155304 148.331207,172.656631 
	C148.460754,156.376724 157.936401,147.037628 174.286316,147.032028 
	C229.450058,147.013107 284.613800,147.012100 339.777557,147.032669 
	C356.091553,147.038742 365.623901,156.412872 365.661255,172.720428 
	C365.742920,208.385025 365.699310,244.049927 365.675018,279.714691 
	C365.670410,286.509613 364.347534,288.385986 358.021179,290.063660 
	C351.583618,289.022827 350.634247,284.940430 350.644714,280.034271 
	C350.694580,256.711975 350.666382,233.389481 350.666046,210.067047 
	C350.665863,197.572891 350.721771,185.078384 350.643921,172.584717 
	C350.599731,165.497482 347.774994,162.143555 341.476990,162.081482 
	C329.988708,161.968231 318.497589,162.146164 306.543762,162.126678 
	C262.093994,162.046051 218.108047,162.030624 174.122116,162.046768 
	C166.383133,162.049622 163.381744,164.869598 163.375290,172.501480 
	C163.327698,228.816818 163.328674,285.132233 163.373993,341.447540 
	C163.380157,349.103516 166.369049,351.944092 174.071152,351.952484 
	C200.229446,351.980896 226.387802,351.983887 252.546112,351.956512 
	C270.702850,351.937531 288.859558,351.852600 307.477722,351.877686 
	C318.756409,351.962616 329.573883,352.012939 340.390808,351.954987 
	C347.454468,351.917145 350.475067,349.021729 350.634674,342.018311 
	C350.778748,335.697662 350.827484,329.365723 350.617584,323.048767 
	C350.435455,317.567749 352.603607,314.138306 358.063477,312.985840 
z"/>
<path fill="#F9DEBA" opacity="1.000000" stroke="none" 
	d="
M307.007629,162.202621 
	C318.497589,162.146164 329.988708,161.968231 341.476990,162.081482 
	C347.774994,162.143555 350.599731,165.497482 350.643921,172.584717 
	C350.721771,185.078384 350.665863,197.572891 350.666046,210.067047 
	C350.666382,233.389481 350.694580,256.711975 350.644714,280.034271 
	C350.634247,284.940430 351.583618,289.022827 357.656067,290.156311 
	C358.040100,297.522797 358.053070,304.787109 358.064758,312.518646 
	C352.603607,314.138306 350.435455,317.567749 350.617584,323.048767 
	C350.827484,329.365723 350.778748,335.697662 350.634674,342.018311 
	C350.475067,349.021729 347.454468,351.917145 340.390808,351.954987 
	C329.573883,352.012939 318.756409,351.962616 307.653320,351.548096 
	C307.915253,348.954132 308.844513,346.786041 308.935181,344.583405 
	C309.158173,339.167053 308.995392,333.734833 309.435181,328.218567 
	C312.021210,328.118500 314.163605,328.187408 316.297516,328.083252 
	C321.056885,327.850891 323.982361,325.149506 324.117340,320.977539 
	C324.254364,316.741608 321.553070,313.728973 316.870117,313.212219 
	C314.267029,312.924957 311.623352,313.005585 309.004211,312.456787 
	C308.992523,296.266174 308.974609,280.539246 309.330536,264.666687 
	C311.855377,264.500702 314.014252,264.591187 316.155701,264.437866 
	C321.365448,264.064911 324.198547,261.306793 324.117523,256.847260 
	C324.039886,252.576599 321.317291,249.978912 316.346924,249.560165 
	C313.890625,249.353226 311.420868,249.306732 308.975739,248.707550 
	C308.995514,232.511490 308.996735,216.795532 309.436584,200.988571 
	C312.503235,200.820816 315.187866,201.058044 317.746552,200.596695 
	C322.011688,199.827637 324.467743,197.153641 324.058441,192.615326 
	C323.673981,188.352844 320.992218,186.252380 316.867249,185.953857 
	C314.248199,185.764297 311.614899,185.771851 308.988403,185.241806 
	C308.997437,182.015244 309.240417,179.214188 308.962708,176.465759 
	C308.480652,171.694229 307.676666,166.955246 307.007629,162.202621 
z"/>
<path fill="#FEEFD6" opacity="1.000000" stroke="none" 
	d="
M306.543793,162.126678 
	C307.676666,166.955246 308.480652,171.694229 308.962708,176.465759 
	C309.240417,179.214188 308.997437,182.015244 308.527039,185.326630 
	C284.935913,185.866714 261.806580,185.871414 238.677277,185.879608 
	C230.696289,185.882446 226.896240,188.399643 227.087021,193.544342 
	C227.273148,198.563797 230.914658,200.875092 238.626694,200.894272 
	C262.083771,200.952576 285.540833,201.017334 308.997925,201.079575 
	C308.996735,216.795532 308.995514,232.511490 308.524841,248.837189 
	C284.103271,249.462326 260.150909,249.429169 236.199112,249.528458 
	C230.467667,249.552216 226.958084,252.739365 227.110718,257.219360 
	C227.258789,261.565521 230.568924,264.337799 236.139435,264.477478 
	C241.458862,264.610901 246.784302,264.489044 252.106934,264.514648 
	C271.056885,264.605743 290.006775,264.711853 308.956665,264.812286 
	C308.974609,280.539246 308.992523,296.266174 308.541992,312.540588 
	C284.944397,313.094360 261.815277,313.093445 238.686203,313.121155 
	C236.866348,313.123322 235.000748,313.106323 233.236374,313.477875 
	C229.315369,314.303589 227.035416,316.958252 227.194916,320.890106 
	C227.362808,325.028870 229.836472,327.614197 234.129059,328.023163 
	C235.779724,328.180420 237.453430,328.113708 239.116714,328.118469 
	C262.407043,328.185089 285.697388,328.246399 308.987732,328.309021 
	C308.995392,333.734833 309.158173,339.167053 308.935181,344.583405 
	C308.844513,346.786041 307.915253,348.954132 307.191895,351.467529 
	C288.859558,351.852600 270.702850,351.937531 252.546112,351.956512 
	C226.387802,351.983887 200.229446,351.980896 174.071152,351.952484 
	C166.369049,351.944092 163.380157,349.103516 163.373993,341.447540 
	C163.328674,285.132233 163.327698,228.816818 163.375290,172.501480 
	C163.381744,164.869598 166.383133,162.049622 174.122116,162.046768 
	C218.108047,162.030624 262.093994,162.046051 306.543793,162.126678 
M205.425095,263.870361 
	C208.536819,259.970428 209.273880,255.841965 206.370514,251.529678 
	C203.902985,247.864716 200.365799,246.343063 196.049515,247.353973 
	C191.775848,248.354919 189.132843,251.186737 188.427170,255.548279 
	C187.788757,259.494202 189.246170,262.716492 192.495255,265.009308 
	C196.734787,268.000977 200.876434,267.470917 205.425095,263.870361 
M188.209991,192.702026 
	C187.795502,200.331329 195.664749,205.587402 202.693466,202.113617 
	C206.891449,200.038864 208.963974,195.328644 207.834290,190.802887 
	C206.807968,186.691315 202.610489,183.339539 198.378281,183.252121 
	C193.700729,183.155518 190.117828,186.267426 188.209991,192.702026 
M200.634460,330.202545 
	C204.786957,329.193329 207.204453,326.470337 207.937119,322.369080 
	C208.979004,316.536774 204.853745,311.310425 199.055862,310.888489 
	C193.233673,310.464752 188.183624,314.986450 188.156967,320.647095 
	C188.128403,326.712646 192.906769,330.675690 200.634460,330.202545 
z"/>
<path fill="#020202" opacity="1.000000" stroke="none" 
	d="
M309.330536,264.666687 
	C290.006775,264.711853 271.056885,264.605743 252.106934,264.514648 
	C246.784302,264.489044 241.458862,264.610901 236.139435,264.477478 
	C230.568924,264.337799 227.258789,261.565521 227.110718,257.219360 
	C226.958084,252.739365 230.467667,249.552216 236.199112,249.528458 
	C260.150909,249.429169 284.103271,249.462326 308.506287,249.317291 
	C311.420868,249.306732 313.890625,249.353226 316.346924,249.560165 
	C321.317291,249.978912 324.039886,252.576599 324.117523,256.847260 
	C324.198547,261.306793 321.365448,264.064911 316.155701,264.437866 
	C314.014252,264.591187 311.855377,264.500702 309.330536,264.666687 
z"/>
<path fill="#040303" opacity="1.000000" stroke="none" 
	d="
M309.436584,200.988571 
	C285.540833,201.017334 262.083771,200.952576 238.626694,200.894272 
	C230.914658,200.875092 227.273148,198.563797 227.087021,193.544342 
	C226.896240,188.399643 230.696289,185.882446 238.677277,185.879608 
	C261.806580,185.871414 284.935913,185.866714 308.526611,185.775818 
	C311.614899,185.771851 314.248199,185.764297 316.867249,185.953857 
	C320.992218,186.252380 323.673981,188.352844 324.058441,192.615326 
	C324.467743,197.153641 322.011688,199.827637 317.746552,200.596695 
	C315.187866,201.058044 312.503235,200.820816 309.436584,200.988571 
z"/>
<path fill="#040303" opacity="1.000000" stroke="none" 
	d="
M309.435181,328.218567 
	C285.697388,328.246399 262.407043,328.185089 239.116714,328.118469 
	C237.453430,328.113708 235.779724,328.180420 234.129059,328.023163 
	C229.836472,327.614197 227.362808,325.028870 227.194916,320.890106 
	C227.035416,316.958252 229.315369,314.303589 233.236374,313.477875 
	C235.000748,313.106323 236.866348,313.123322 238.686203,313.121155 
	C261.815277,313.093445 284.944397,313.094360 308.535706,313.004211 
	C311.623352,313.005585 314.267029,312.924957 316.870117,313.212219 
	C321.553070,313.728973 324.254364,316.741608 324.117340,320.977539 
	C323.982361,325.149506 321.056885,327.850891 316.297516,328.083252 
	C314.163605,328.187408 312.021210,328.118500 309.435181,328.218567 
z"/>
<path fill="#070706" opacity="1.000000" stroke="none" 
	d="
M205.137314,264.127686 
	C200.876434,267.470917 196.734787,268.000977 192.495255,265.009308 
	C189.246170,262.716492 187.788757,259.494202 188.427170,255.548279 
	C189.132843,251.186737 191.775848,248.354919 196.049515,247.353973 
	C200.365799,246.343063 203.902985,247.864716 206.370514,251.529678 
	C209.273880,255.841965 208.536819,259.970428 205.137314,264.127686 
z"/>
<path fill="#060605" opacity="1.000000" stroke="none" 
	d="
M188.290024,192.323364 
	C190.117828,186.267426 193.700729,183.155518 198.378281,183.252121 
	C202.610489,183.339539 206.807968,186.691315 207.834290,190.802887 
	C208.963974,195.328644 206.891449,200.038864 202.693466,202.113617 
	C195.664749,205.587402 187.795502,200.331329 188.290024,192.323364 
z"/>
<path fill="#060605" opacity="1.000000" stroke="none" 
	d="
M200.264084,330.291870 
	C192.906769,330.675690 188.128403,326.712646 188.156967,320.647095 
	C188.183624,314.986450 193.233673,310.464752 199.055862,310.888489 
	C204.853745,311.310425 208.979004,316.536774 207.937119,322.369080 
	C207.204453,326.470337 204.786957,329.193329 200.264084,330.291870 
z"/>
</svg>