<svg width="56" height="56" viewBox="0 0 56 56" fill="none" xmlns="http://www.w3.org/2000/svg">
<path d="M56 28C56 43.464 43.464 56 28 56C12.536 56 0 43.464 0 28C0 12.536 12.536 0 28 0C43.464 0 56 12.536 56 28Z" fill="#00AAFF"/>
<path d="M27.8535 40.0879C27.3066 40.0879 26.9062 40.0098 26.6523 39.8535C26.418 39.6973 26.3008 39.4336 26.3008 39.0625V29.7461H16.9551C16.584 29.7461 16.3105 29.6484 16.1348 29.4531C15.9785 29.2578 15.9004 28.8965 15.9004 28.3691V28.0176C15.9004 27.4512 15.9883 27.0215 16.1641 26.7285C16.3398 26.416 16.6035 26.2598 16.9551 26.2598H26.3008V16.9141C26.3008 16.5625 26.418 16.2988 26.6523 16.123C26.9062 15.9473 27.3066 15.8594 27.8535 15.8594H28.2051C29.2402 15.8594 29.7578 16.2109 29.7578 16.9141V26.2598H39.0449C39.3965 26.2598 39.6602 26.3867 39.8359 26.6406C40.0117 26.875 40.0996 27.2656 40.0996 27.8125V28.1641C40.0996 29.2188 39.748 29.7461 39.0449 29.7461H29.7578V39.0625C29.7578 39.4336 29.6309 39.6973 29.377 39.8535C29.1426 40.0098 28.752 40.0879 28.2051 40.0879H27.8535Z" fill="white"/>
</svg>
